<?xml version="1.0" standalone="no"?>
<!DOCTYPE svg PUBLIC "-//W3C//DTD SVG 20010904//EN"
 "http://www.w3.org/TR/2001/REC-SVG-20010904/DTD/svg10.dtd">
<svg version="1.0" xmlns="http://www.w3.org/2000/svg"
 width="518.000000pt" height="607.000000pt" viewBox="0 0 518.000000 607.000000"
 preserveAspectRatio="xMidYMid meet">

<g transform="translate(0.000000,607.000000) scale(0.100000,-0.100000)"
fill="#000000" stroke="none">
<path d="M10 3035 l0 -3025 2574 0 c2338 0 2574 1 2580 16 3 9 6 1370 6 3025
l0 3009 -2580 0 -2580 0 0 -3025z m1480 2805 l0 -200 -730 0 -730 0 0 200 0
200 730 0 730 0 0 -200z m2160 0 l0 -200 -1065 0 -1065 0 0 200 0 200 1065 0
1065 0 0 -200z m1500 0 l0 -200 -730 0 -730 0 0 200 0 200 730 0 730 0 0 -200z
m-3660 -740 l0 -520 -105 0 c-63 0 -105 -4 -105 -10 0 -6 42 -10 105 -10 l105
0 0 -350 0 -350 -65 0 c-58 0 -65 2 -65 20 0 19 -1 19 -45 -2 -25 -12 -45 -25
-45 -28 0 -3 20 -16 45 -28 44 -21 45 -21 45 -2 0 18 7 20 65 20 l65 0 0 -455
0 -455 -60 0 c-53 0 -60 2 -60 20 0 19 -1 19 -45 -2 -25 -12 -45 -25 -45 -28
0 -3 20 -16 45 -28 44 -21 45 -21 45 -2 0 18 7 20 60 20 l60 0 0 -925 0 -925
-315 0 c-203 0 -315 -4 -315 -10 0 -6 112 -10 315 -10 l315 0 0 -505 0 -505
-730 0 -730 0 0 2795 0 2795 730 0 730 0 0 -520z m2170 -365 l0 -885 -495 0
c-323 0 -495 -3 -495 -10 0 -7 172 -10 495 -10 l495 0 0 -425 0 -425 -190 0
c-183 0 -190 1 -190 20 0 19 -1 19 -45 -2 -25 -12 -45 -25 -45 -28 0 -3 20
-16 45 -28 44 -21 45 -21 45 -2 0 19 7 20 190 20 l190 0 0 -950 0 -950 -1070
0 -1070 0 0 925 0 925 289 0 288 0 6 -42 c6 -45 28 -81 71 -112 25 -19 44 -21
222 -24 l194 -3 0 -85 c0 -77 -2 -84 -20 -84 -19 0 -19 -1 2 -45 12 -25 25
-45 28 -45 3 0 16 20 28 45 21 44 21 45 2 45 -18 0 -20 7 -20 84 l0 85 234 3
c219 3 236 4 262 24 63 46 69 64 69 199 0 135 -6 153 -69 199 -27 20 -39 21
-466 21 -427 0 -439 -1 -466 -21 -54 -40 -68 -70 -72 -150 l-4 -74 -289 0
-289 0 0 455 0 455 480 0 c313 0 480 3 480 10 0 7 -167 10 -480 10 l-480 0 0
350 0 350 215 0 c209 0 215 -1 215 -20 l0 -20 40 20 c21 11 42 20 45 20 3 0 5
-48 5 -107 0 -138 18 -184 82 -213 40 -18 68 -20 423 -20 355 0 383 2 423 20
33 15 47 29 62 62 17 38 20 66 20 248 0 182 -3 210 -20 248 -15 33 -29 47 -62
62 -40 18 -68 20 -423 20 -355 0 -383 -2 -423 -20 -60 -27 -81 -77 -82 -192 0
-49 -2 -88 -5 -88 -3 0 -24 9 -45 20 l-40 20 0 -20 c0 -19 -6 -20 -215 -20
l-215 0 0 520 0 520 1070 0 1070 0 0 -885z m1490 -1910 l0 -2795 -730 0 -730
0 0 505 0 505 260 0 c253 0 260 -1 260 -20 0 -19 1 -19 45 2 25 12 45 25 45
28 0 3 -20 16 -45 28 -44 21 -45 21 -45 2 0 -19 -7 -20 -260 -20 l-260 0 0
950 0 950 155 0 c97 0 155 4 155 10 0 6 -58 10 -155 10 l-155 0 0 425 0 425
375 0 375 0 0 -240 c0 -233 -1 -240 -20 -240 -19 0 -19 -1 2 -45 12 -25 25
-45 28 -45 3 0 16 20 28 45 21 44 21 45 2 45 -19 0 -20 7 -20 250 l0 250 -385
0 -385 0 0 885 0 885 730 0 730 0 0 -2795z m-2199 2018 c70 -27 79 -60 79
-293 0 -169 -3 -201 -19 -236 -33 -72 -45 -74 -469 -74 -336 0 -370 2 -408 19
-65 30 -74 63 -74 291 0 228 9 261 74 291 38 17 72 19 408 19 319 0 373 -2
409 -17z m142 -1706 c53 -34 62 -61 62 -182 0 -121 -9 -148 -62 -182 -25 -17
-63 -18 -453 -18 -390 0 -428 1 -453 18 -44 29 -60 62 -65 142 -9 140 20 213
91 234 18 6 210 9 442 8 374 -2 413 -4 438 -20z m567 -2602 l0 -505 -1070 0
-1070 0 0 505 0 505 1070 0 1070 0 0 -505z"/>
<path d="M611 5858 c-13 -36 2 -63 35 -63 21 0 30 5 32 20 3 20 2 20 -12 1
-13 -16 -18 -17 -31 -6 -19 16 -19 49 0 56 8 4 23 0 32 -7 14 -12 16 -12 11 1
-2 8 -17 16 -31 18 -21 3 -29 -2 -36 -20z"/>
<path d="M690 5835 c0 -25 5 -45 10 -45 6 0 10 20 10 45 0 25 -4 45 -10 45 -5
0 -10 -20 -10 -45z"/>
<path d="M889 5866 c-3 -3 -3 -21 -1 -41 6 -47 27 -46 26 2 -1 34 -12 51 -25
39z"/>
<path d="M720 5825 c0 -19 5 -35 10 -35 6 0 10 16 10 35 0 19 -4 35 -10 35 -5
0 -10 -16 -10 -35z"/>
<path d="M754 5846 c-10 -26 1 -51 24 -54 12 -2 22 1 22 7 0 6 -6 8 -14 5 -8
-3 -17 -1 -21 5 -4 7 4 11 19 11 28 0 33 9 14 28 -16 16 -37 15 -44 -2z m31
-6 c3 -5 -1 -10 -10 -10 -9 0 -13 5 -10 10 3 6 8 10 10 10 2 0 7 -4 10 -10z"/>
<path d="M821 5821 c1 -36 1 -36 8 -6 3 17 11 30 16 30 5 0 13 -13 17 -30 6
-29 6 -29 5 5 -2 29 -6 35 -24 36 -20 1 -23 -3 -22 -35z"/>
<path d="M1920 5836 c0 -25 5 -46 10 -46 6 0 10 6 10 13 0 8 12 19 26 26 36
16 28 45 -14 49 -32 3 -32 3 -32 -42z m50 19 c0 -8 -7 -15 -15 -15 -8 0 -15 7
-15 15 0 8 7 15 15 15 8 0 15 -7 15 -15z"/>
<path d="M2130 5835 c0 -25 5 -45 10 -45 6 0 10 11 10 24 0 14 5 28 10 31 6 4
10 -7 10 -24 0 -17 5 -31 10 -31 6 0 10 14 10 31 0 22 -5 32 -20 36 -11 3 -20
9 -20 14 0 5 -4 9 -10 9 -5 0 -10 -20 -10 -45z"/>
<path d="M2230 5835 c0 -25 5 -45 10 -45 6 0 10 15 10 33 l0 32 20 -32 c27
-45 40 -41 40 12 0 25 -4 45 -10 45 -5 0 -10 -12 -10 -27 l-1 -28 -20 28 c-29
38 -39 34 -39 -18z"/>
<path d="M2453 5866 c-17 -8 -23 -20 -23 -43 0 -43 18 -43 23 0 l4 32 1 -32
c2 -40 22 -44 23 -5 0 15 2 35 4 45 4 19 0 19 -32 3z"/>
<path d="M2907 5866 c-6 -16 11 -36 30 -36 7 0 13 -7 13 -15 0 -18 -12 -19
-28 -3 -6 6 -15 9 -19 5 -12 -12 13 -29 38 -25 34 4 36 35 5 49 -34 16 -33 31
0 23 19 -5 25 -4 20 5 -10 16 -53 14 -59 -3z"/>
<path d="M2397 5863 c-6 -11 4 -73 12 -73 8 0 8 67 -1 75 -3 3 -8 3 -11 -2z"/>
<path d="M2658 5865 c-8 -8 6 -68 17 -72 6 -2 10 14 9 34 -1 34 -13 51 -26 38z"/>
<path d="M2003 5830 c2 -30 6 -35 30 -38 24 -3 27 0 27 27 0 16 -4 33 -10 36
-6 4 -10 -7 -10 -24 0 -41 -17 -40 -29 2 l-10 32 2 -35z"/>
<path d="M2077 5853 c-12 -12 -7 -33 7 -33 8 0 18 -5 22 -11 4 -8 0 -9 -15 -4
-12 4 -21 2 -21 -4 0 -6 11 -11 25 -11 18 0 25 5 25 20 0 11 -7 20 -15 20 -8
0 -15 4 -15 10 0 5 7 6 17 3 11 -4 14 -3 9 5 -8 13 -29 16 -39 5z"/>
<path d="M2324 5846 c-11 -29 0 -51 26 -51 21 0 25 5 25 30 0 24 -5 31 -23 33
-13 2 -24 -3 -28 -12z m39 -32 c-3 -8 -9 -14 -13 -14 -14 0 -22 20 -16 37 5
12 9 13 21 3 7 -6 11 -18 8 -26z"/>
<path d="M2503 5825 c0 -22 2 -30 4 -17 2 12 2 30 0 40 -3 9 -5 -1 -4 -23z"/>
<path d="M2531 5841 c-6 -11 -8 -27 -5 -36 8 -20 45 -16 52 5 5 13 3 13 -11 1
-14 -11 -18 -11 -23 2 -9 25 5 40 24 25 13 -11 14 -11 10 2 -7 23 -35 24 -47
1z"/>
<path d="M2594 5849 c-5 -9 -1 -11 14 -7 12 4 22 3 22 -2 0 -4 -9 -10 -20 -13
-33 -9 -25 -37 11 -37 28 0 30 2 27 33 -2 24 -8 33 -25 35 -11 2 -24 -2 -29
-9z m36 -39 c0 -5 -4 -10 -10 -10 -5 0 -10 5 -10 10 0 6 5 10 10 10 6 0 10 -4
10 -10z"/>
<path d="M2700 5826 c0 -20 5 -36 10 -36 6 0 10 13 10 29 0 17 -4 33 -10 36
-6 4 -10 -8 -10 -29z"/>
<path d="M2734 5846 c-11 -29 0 -51 26 -51 21 0 25 5 25 30 0 24 -5 31 -23 33
-13 2 -24 -3 -28 -12z m39 -32 c-3 -8 -9 -14 -13 -14 -14 0 -22 20 -16 37 5
12 9 13 21 3 7 -6 11 -18 8 -26z"/>
<path d="M2801 5820 l1 -35 9 33 c11 36 29 34 29 -4 0 -13 5 -24 10 -24 12 0
13 40 2 57 -4 7 -18 11 -30 10 -18 -1 -22 -7 -21 -37z"/>
<path d="M2984 5846 c-10 -26 1 -51 24 -54 12 -2 22 1 22 7 0 6 -6 8 -14 5 -8
-3 -17 -1 -21 5 -4 7 4 11 19 11 28 0 33 9 14 28 -16 16 -37 15 -44 -2z m31
-6 c3 -5 -1 -10 -10 -10 -9 0 -13 5 -10 10 3 6 8 10 10 10 2 0 7 -4 10 -10z"/>
<path d="M3051 5820 c2 -29 3 -30 6 -8 6 39 30 43 38 7 8 -36 22 -37 35 -3 14
37 12 53 -4 25 -14 -24 -14 -24 -20 -3 -5 15 -14 21 -32 20 -21 -2 -24 -7 -23
-38z"/>
<path d="M3161 5846 c-27 -33 14 -76 43 -46 8 9 6 11 -11 5 -14 -4 -23 -2 -23
4 0 6 9 11 21 11 14 0 19 5 17 17 -4 23 -31 28 -47 9z m29 -6 c0 -5 -5 -10
-11 -10 -5 0 -7 5 -4 10 3 6 8 10 11 10 2 0 4 -4 4 -10z"/>
<path d="M3221 5820 c0 -33 1 -34 10 -11 5 14 14 31 20 37 8 10 5 12 -10 11
-17 -1 -21 -8 -20 -37z"/>
<path d="M4103 5835 c11 -47 29 -55 35 -17 4 29 20 28 24 0 5 -36 20 -27 33
20 14 46 3 59 -13 15 l-10 -28 -7 28 c-4 15 -11 27 -15 27 -4 0 -11 -12 -15
-27 l-7 -28 -10 28 c-16 44 -26 31 -15 -18z"/>
<path d="M4269 5838 c-2 -31 -3 -35 -6 -15 -5 32 -29 46 -46 27 -10 -10 -8
-12 6 -7 9 4 17 3 17 -2 0 -5 -9 -11 -21 -14 -35 -9 -16 -32 29 -35 35 -3 42
0 42 15 1 17 1 17 14 1 18 -25 29 -23 16 3 -9 15 -8 24 1 35 14 17 -2 19 -19
2 -9 -9 -12 -7 -12 10 0 41 -20 22 -21 -20z m-29 -28 c0 -5 -4 -10 -10 -10 -5
0 -10 5 -10 10 0 6 5 10 10 10 6 0 10 -4 10 -10z"/>
<path d="M4457 5866 c-6 -16 11 -36 30 -36 7 0 13 -7 13 -15 0 -18 -12 -19
-28 -3 -6 6 -15 9 -19 5 -12 -12 13 -29 38 -25 34 4 36 35 5 49 -34 16 -33 31
0 23 19 -5 25 -4 20 5 -10 16 -53 14 -59 -3z"/>
<path d="M4537 5863 c-6 -11 4 -73 12 -73 8 0 8 67 -1 75 -3 3 -8 3 -11 -2z"/>
<path d="M4343 5830 c2 -30 6 -35 30 -38 24 -3 27 0 27 27 0 16 -4 33 -10 36
-6 4 -10 -7 -10 -24 0 -41 -17 -40 -29 2 l-10 32 2 -35z"/>
<path d="M4581 5846 c-20 -24 -9 -51 19 -51 21 0 25 5 25 30 0 34 -24 45 -44
21z m36 -30 c-4 -9 -11 -16 -17 -16 -11 0 -14 33 -3 43 11 11 26 -10 20 -27z"/>
<path d="M4640 5825 c0 -19 5 -35 10 -35 6 0 10 11 10 25 0 14 5 25 10 25 6 0
10 5 10 10 0 6 -9 10 -20 10 -16 0 -20 -7 -20 -35z"/>
<path d="M4691 5846 c-27 -33 14 -76 43 -46 8 9 6 11 -11 5 -14 -4 -23 -2 -23
4 0 6 9 11 21 11 14 0 19 5 17 17 -4 23 -31 28 -47 9z m29 -6 c0 -5 -5 -10
-11 -10 -5 0 -7 5 -4 10 3 6 8 10 11 10 2 0 4 -4 4 -10z"/>
<path d="M4418 5823 c7 -3 16 -2 19 1 4 3 -2 6 -13 5 -11 0 -14 -3 -6 -6z"/>
<path d="M704 5526 c-64 -28 -67 -112 -6 -151 l31 -20 1 -102 c0 -96 -1 -103
-20 -103 -19 0 -19 -1 2 -45 12 -25 25 -45 28 -45 3 0 16 20 28 45 21 44 21
45 2 45 -19 0 -20 7 -20 105 0 84 3 105 14 105 8 0 26 14 40 31 42 49 32 105
-24 134 -35 18 -36 18 -76 1z"/>
<path d="M265 5011 c-48 -22 -79 -54 -100 -103 -22 -55 -22 -531 0 -586 21
-49 52 -81 100 -103 37 -17 72 -19 435 -19 363 0 398 2 435 19 48 22 79 54
100 103 22 55 22 531 0 586 -21 49 -52 81 -100 103 -37 17 -72 19 -435 19
-363 0 -398 -2 -435 -19z m840 -12 c50 -14 100 -64 114 -114 14 -53 14 -487 0
-540 -14 -50 -64 -100 -114 -114 -54 -15 -756 -15 -810 0 -50 14 -100 64 -114
114 -14 52 -15 487 0 538 14 50 55 95 104 112 51 18 756 21 820 4z"/>
<path d="M300 4725 c0 -41 3 -42 33 -14 l22 20 3 -20 c5 -29 19 -26 24 4 4 19
1 25 -13 25 -10 0 -21 5 -24 10 -3 6 -15 10 -26 10 -15 0 -19 -7 -19 -35z"/>
<path d="M731 4723 c0 -31 2 -34 9 -18 6 15 9 16 9 4 1 -13 20 -16 125 -17
l123 -1 -5 25 c-5 28 -38 33 -45 7 -4 -15 -5 -15 -6 -2 -1 13 -13 16 -63 16
-35 -1 -66 -6 -70 -11 -4 -6 -8 -1 -8 12 0 12 -5 22 -10 22 -6 0 -15 -10 -20
-22 l-9 -23 -7 23 c-10 35 -24 26 -23 -15z"/>
<path d="M395 4732 c-3 -3 -5 -14 -5 -24 0 -21 35 -25 43 -5 3 6 6 1 6 -12 1
-20 3 -22 16 -11 9 7 36 12 60 12 37 -2 45 1 45 15 1 17 1 17 11 1 5 -10 19
-18 30 -18 15 0 20 6 17 23 -2 17 -11 23 -35 25 -26 3 -32 -1 -36 -20 l-4 -23
-2 23 c-1 27 -41 32 -41 5 -1 -17 -1 -17 -10 -1 -7 11 -23 17 -50 16 -21 0
-41 -3 -45 -6z m80 -11 c3 -5 1 -12 -5 -16 -5 -3 -10 1 -10 9 0 18 6 21 15 7z"/>
<path d="M650 4715 c0 -20 5 -25 24 -25 19 0 22 4 18 25 -3 16 -11 25 -23 25
-14 0 -19 -7 -19 -25z"/>
<path d="M1005 4727 c-14 -37 17 -74 39 -46 6 8 20 14 31 14 13 0 20 7 20 20
0 17 -7 20 -43 22 -27 2 -44 -2 -47 -10z m25 -13 c0 -8 -5 -12 -10 -9 -6 4 -8
11 -5 16 9 14 15 11 15 -7z"/>
<path d="M598 4638 c-3 -7 -29 -12 -68 -12 -57 -1 -63 -3 -66 -23 -3 -20 1
-23 30 -23 28 0 35 4 39 23 4 20 4 21 6 1 1 -17 8 -21 36 -22 34 -1 35 0 35
33 0 35 -5 45 -12 23z m2 -39 c0 -5 -4 -9 -10 -9 -5 0 -10 7 -10 16 0 8 5 12
10 9 6 -3 10 -10 10 -16z"/>
<path d="M650 4615 l0 -34 74 1 c68 1 75 3 79 22 4 20 4 20 6 -2 1 -21 5 -23
64 -20 60 2 62 3 61 27 -1 23 -24 45 -24 23 0 -6 -9 -8 -20 -5 -14 4 -22 -1
-29 -18 l-10 -24 0 23 c-1 19 -7 22 -43 24 -24 0 -50 0 -58 -1 -49 -6 -92 -8
-72 -4 30 6 28 23 -3 23 -22 0 -25 -4 -25 -35z m55 -14 c-8 -13 -45 -15 -45
-2 0 5 10 11 23 13 27 5 31 3 22 -11z m45 3 c0 -8 -5 -12 -10 -9 -6 4 -8 11
-5 16 9 14 15 11 15 -7z m27 -6 c-3 -8 -6 -5 -6 6 -1 11 2 17 5 13 3 -3 4 -12
1 -19z m122 1 c-15 -9 -32 -2 -24 11 3 5 13 6 21 3 12 -4 13 -8 3 -14z"/>
<path d="M420 4508 c0 -31 4 -38 19 -38 12 0 21 8 24 23 4 21 4 21 6 1 1 -20
6 -21 120 -22 116 -1 120 0 124 21 l4 22 2 -22 c1 -19 7 -22 44 -21 23 0 45 5
49 12 6 8 8 7 8 -1 0 -22 18 -14 23 10 l4 22 2 -22 c1 -22 21 -34 21 -13 0 6
8 10 18 10 11 0 8 5 -12 15 -35 18 -53 19 -59 3 -4 -10 -6 -10 -6 0 -1 6 -10
12 -21 12 -11 0 -20 -6 -21 -12 -1 -7 -5 -2 -9 12 -8 24 -8 23 -9 -7 -1 -18
-6 -33 -12 -33 -5 0 -9 8 -7 18 3 19 -2 22 -36 22 -15 0 -26 -7 -29 -17 -3
-12 -5 -10 -6 7 -1 19 -7 26 -21 26 -15 0 -20 -7 -21 -31 -1 -23 -3 -25 -6 -7
-4 21 -29 29 -73 23 -49 -6 -104 -1 -111 11 -6 8 -9 0 -9 -24z m147 -20 c-3
-8 -6 -5 -6 6 -1 11 2 17 5 13 3 -3 4 -12 1 -19z m233 7 c0 -8 -4 -15 -10 -15
-5 0 -10 7 -10 15 0 8 5 15 10 15 6 0 10 -7 10 -15z"/>
<path d="M913 4505 c0 -22 2 -30 4 -17 2 12 2 30 0 40 -3 9 -5 -1 -4 -23z"/>
<path d="M960 4531 c0 -6 -7 -11 -15 -11 -9 0 -15 -9 -15 -25 0 -20 5 -25 25
-25 21 0 25 5 25 29 0 17 -4 33 -10 36 -5 3 -10 1 -10 -4z m0 -36 c0 -8 -4
-15 -10 -15 -5 0 -10 7 -10 15 0 8 5 15 10 15 6 0 10 -7 10 -15z"/>
<path d="M265 4081 c-48 -22 -79 -54 -100 -103 -22 -54 -22 -472 0 -526 21
-49 52 -81 100 -103 35 -16 67 -19 238 -19 l197 0 0 -100 c0 -94 -1 -100 -20
-100 l-20 0 20 -40 c11 -21 20 -42 20 -45 0 -3 -83 -5 -185 -5 -145 0 -194 -3
-223 -15 -49 -21 -81 -52 -103 -100 -17 -38 -19 -79 -19 -663 0 -540 2 -628
15 -660 21 -49 52 -81 100 -103 37 -17 72 -19 435 -19 363 0 398 2 435 19 48
22 79 54 100 103 13 32 15 120 15 658 0 670 1 660 -53 719 -49 53 -85 61 -299
61 -109 0 -198 2 -198 5 0 3 9 24 20 45 l20 40 -20 0 c-19 0 -20 6 -20 100 l0
100 188 0 c160 0 193 3 227 19 48 22 79 54 100 103 22 54 22 472 0 526 -21 49
-52 81 -100 103 -37 17 -72 19 -435 19 -363 0 -398 -2 -435 -19z m840 -12 c50
-14 100 -64 114 -114 14 -52 14 -428 0 -480 -14 -50 -64 -100 -114 -114 -54
-15 -756 -15 -810 0 -50 14 -100 64 -114 114 -14 51 -14 428 0 478 14 50 55
95 104 112 51 18 756 21 820 4z m20 -1060 c50 -14 100 -64 114 -114 15 -55 15
-1215 0 -1270 -14 -50 -64 -100 -114 -114 -54 -15 -756 -15 -810 0 -50 14
-100 64 -114 114 -15 54 -15 1215 0 1268 14 50 55 95 104 112 51 18 756 21
820 4z"/>
<path d="M221 3764 l-1 -31 100 0 100 -1 0 29 c0 16 -4 29 -10 29 -5 0 -10 -7
-10 -15 0 -9 -6 -12 -16 -8 -9 3 -20 0 -25 -8 -5 -8 -9 -9 -9 -3 0 17 -81 14
-87 -2 -9 -24 -31 -15 -36 14 -4 26 -4 26 -6 -4z"/>
<path d="M440 3761 c0 -29 1 -30 49 -29 38 0 51 4 54 16 4 15 5 15 6 0 1 -16
14 -18 121 -18 113 0 120 1 120 20 0 17 -7 20 -39 20 -29 0 -41 -5 -44 -17 -4
-17 -5 -17 -6 0 -1 20 -27 23 -34 5 -4 -10 -6 -10 -6 0 -1 6 -7 12 -15 12 -8
0 -17 6 -19 13 -3 6 -6 -1 -7 -18 -2 -18 -4 -23 -7 -12 -2 9 -9 17 -15 17 -6
0 -17 -8 -25 -17 -12 -15 -14 -15 -10 -2 3 9 1 22 -4 30 -6 10 -9 10 -9 2 0
-8 -13 -13 -30 -13 -16 0 -30 5 -30 10 0 6 -11 10 -25 10 -21 0 -25 -5 -25
-29z m40 -7 c0 -8 -4 -14 -10 -14 -5 0 -10 9 -10 21 0 11 5 17 10 14 6 -3 10
-13 10 -21z m170 -4 c0 -5 -4 -10 -10 -10 -5 0 -10 5 -10 10 0 6 5 10 10 10 6
0 10 -4 10 -10z"/>
<path d="M844 3775 c-14 -35 2 -43 85 -42 62 0 81 4 81 14 0 8 5 11 11 7 6 -3
9 -15 6 -25 -7 -28 8 -23 21 6 7 14 12 27 12 28 0 1 -25 3 -55 4 -37 1 -55 -2
-55 -10 0 -7 -4 -6 -10 3 -8 12 -10 12 -10 -5 0 -18 -2 -17 -24 8 -26 30 -53
35 -62 12z m36 -9 c0 -17 -14 -29 -23 -20 -8 8 3 34 14 34 5 0 9 -6 9 -14z"/>
<path d="M1086 3774 c-9 -23 -7 -44 3 -44 5 0 12 8 14 18 4 16 5 16 6 0 2 -26
41 -24 41 2 0 15 -7 20 -26 20 -14 0 -23 4 -19 10 3 6 2 10 -3 10 -6 0 -13 -7
-16 -16z m54 -24 c0 -5 -4 -10 -10 -10 -5 0 -10 5 -10 10 0 6 5 10 10 10 6 0
10 -4 10 -10z"/>
<path d="M1161 3748 c0 -16 2 -18 6 -8 3 8 11 18 17 22 7 5 4 8 -6 8 -12 0
-18 -7 -17 -22z"/>
<path d="M250 3660 c0 -30 14 -41 23 -17 4 9 8 8 16 -3 8 -12 11 -8 11 18 0
28 -3 32 -25 32 -21 0 -25 -5 -25 -30z m35 10 c3 -5 1 -10 -4 -10 -6 0 -11 5
-11 10 0 6 2 10 4 10 3 0 8 -4 11 -10z"/>
<path d="M488 3680 c-2 -8 -34 -12 -91 -13 -76 -1 -87 -3 -87 -18 0 -16 9 -18
68 -16 47 1 71 6 79 17 11 13 12 12 13 -5 l1 -20 9 20 c7 17 9 17 9 3 1 -10 5
-18 10 -18 4 0 7 12 5 26 -3 30 -10 40 -16 24z"/>
<path d="M541 3663 c-1 -26 3 -33 17 -33 10 0 23 5 30 12 8 8 12 8 12 1 0 -6
16 -11 35 -11 20 0 35 5 35 12 0 8 3 7 8 -1 6 -9 11 -7 20 7 11 18 8 19 -48
17 -43 -2 -60 1 -60 10 0 7 -4 13 -10 13 -5 0 -10 -11 -10 -25 0 -34 -18 -32
-23 3 -4 25 -4 25 -6 -5z"/>
<path d="M730 3660 c0 -23 4 -30 20 -30 12 0 20 7 21 18 0 14 2 14 9 -3 8 -19
9 -19 9 3 1 16 -5 22 -19 22 -11 0 -20 5 -20 10 0 6 -4 10 -10 10 -5 0 -10
-13 -10 -30z"/>
<path d="M800 3661 c0 -28 2 -29 38 -28 20 1 42 8 49 17 11 13 12 12 13 -5 l1
-20 9 20 c7 17 9 17 9 3 1 -10 6 -18 11 -18 6 0 10 8 11 18 0 14 2 14 9 -3 8
-19 9 -19 9 3 1 23 -1 23 -69 20 -52 -2 -70 0 -70 9 0 7 -4 13 -10 13 -5 0
-10 -13 -10 -29z"/>
<path d="M1015 3680 c-3 -5 -15 -10 -26 -10 -12 0 -19 -7 -19 -19 0 -16 8 -19
65 -19 58 0 65 2 65 20 0 16 -5 19 -26 15 -14 -2 -31 2 -39 9 -9 9 -16 10 -20
4z m75 -30 c0 -5 -4 -10 -10 -10 -5 0 -10 5 -10 10 0 6 5 10 10 10 6 0 10 -4
10 -10z"/>
<path d="M1111 3648 c0 -22 1 -22 9 -3 7 17 9 17 9 3 1 -10 6 -18 12 -18 17 0
5 34 -14 38 -12 3 -17 -3 -16 -20z"/>
<path d="M461 2613 c1 -26 3 -30 6 -14 l5 23 14 -21 c22 -31 34 -26 34 14 0
19 -4 35 -10 35 -5 0 -10 -8 -10 -17 -1 -17 -1 -17 -11 0 -17 28 -29 19 -28
-20z"/>
<path d="M588 2638 c-3 -7 -2 -23 0 -35 6 -32 49 -32 55 0 l4 22 2 -22 c0 -13
6 -23 11 -23 6 0 10 10 11 23 1 21 1 21 9 -3 l8 -25 1 28 c1 15 -4 27 -11 27
-9 0 -8 4 2 10 12 8 11 10 -7 10 -13 0 -23 -4 -23 -10 0 -5 -9 -10 -20 -10
-11 0 -20 5 -20 10 0 14 -18 12 -22 -2z m29 -40 c-3 -8 -6 -5 -6 6 -1 11 2 17
5 13 3 -3 4 -12 1 -19z"/>
<path d="M818 2639 c-9 -26 4 -59 23 -59 14 0 19 7 18 28 -2 23 -2 24 -6 5 -2
-13 -9 -23 -15 -23 -6 0 -8 9 -5 19 6 23 -8 51 -15 30z"/>
<path d="M537 2624 c-4 -4 -7 -16 -7 -26 0 -14 6 -19 23 -16 14 2 22 10 22 23
0 20 -25 32 -38 19z m27 -25 c-3 -5 -10 -7 -15 -3 -5 3 -7 10 -3 15 3 5 10 7
15 3 5 -3 7 -10 3 -15z"/>
<path d="M704 2615 c-10 -24 3 -32 54 -33 47 -1 49 0 44 24 -5 26 -42 35 -42
10 0 -7 -9 -16 -20 -19 -13 -3 -20 0 -20 9 0 8 6 11 15 8 8 -4 15 -1 15 5 0
16 -40 13 -46 -4z"/>
<path d="M874 2615 c-3 -8 -3 -19 1 -25 9 -14 42 -13 48 3 4 10 6 10 6 0 2
-22 19 -14 24 10 l4 22 2 -22 c0 -13 6 -23 12 -23 6 0 9 10 7 22 -3 26 -36 37
-49 16 -6 -10 -9 -10 -9 0 0 17 -39 15 -46 -3z m36 -10 c0 -8 -4 -15 -10 -15
-5 0 -10 7 -10 15 0 8 5 15 10 15 6 0 10 -7 10 -15z"/>
<path d="M748 2518 c-3 -7 -21 -12 -44 -11 -21 1 -42 -4 -46 -10 -6 -9 -8 -8
-8 2 0 11 -3 11 -15 1 -9 -8 -15 -8 -15 -2 0 14 -83 13 -92 -1 -10 -16 2 -37
22 -37 10 0 21 6 23 13 4 10 6 10 6 0 2 -23 21 -14 22 10 l0 22 9 -22 c10 -25
25 -30 34 -10 5 10 7 10 12 0 7 -16 44 -17 44 -2 0 8 4 8 13 1 21 -17 77 -20
77 -5 0 8 -4 11 -10 8 -6 -4 -10 7 -10 24 0 30 -14 43 -22 19z m2 -33 c0 -8
-4 -15 -10 -15 -5 0 -10 7 -10 15 0 8 5 15 10 15 6 0 10 -7 10 -15z"/>
<path d="M380 2485 c0 -31 20 -33 21 -2 l0 22 9 -22 c9 -23 50 -33 50 -13 0 6
8 5 20 -2 16 -10 22 -10 32 1 11 12 10 13 -4 8 -12 -4 -18 -1 -18 8 0 9 6 12
15 9 8 -4 15 -1 15 5 0 15 -33 14 -48 -1 -9 -9 -12 -9 -12 0 0 7 -16 12 -40
12 -36 0 -40 -2 -40 -25z"/>
<path d="M837 2504 c-4 -4 -7 -16 -7 -26 0 -14 6 -19 23 -16 14 2 22 10 22 23
0 20 -25 32 -38 19z m27 -25 c-3 -5 -10 -7 -15 -3 -5 3 -7 10 -3 15 3 5 10 7
15 3 5 -3 7 -10 3 -15z"/>
<path d="M890 2475 c0 -19 5 -35 10 -35 6 0 10 5 10 10 0 6 7 10 15 10 9 0 15
9 15 25 0 20 -5 25 -25 25 -22 0 -25 -4 -25 -35z m35 16 c3 -5 1 -12 -5 -16
-5 -3 -10 1 -10 9 0 18 6 21 15 7z"/>
<path d="M954 2496 c-8 -21 3 -36 27 -36 15 0 20 6 17 22 -4 27 -35 37 -44 14z"/>
<path d="M1011 2483 l0 -28 11 25 c11 25 11 25 15 3 3 -13 9 -23 14 -23 22 0
4 45 -18 48 -19 3 -23 -1 -22 -25z"/>
<path d="M768 2398 c-7 -20 4 -58 16 -58 10 0 12 17 7 63 -1 12 -19 8 -23 -5z"/>
<path d="M930 2400 c0 -5 -11 -10 -25 -10 -14 0 -25 -6 -25 -12 0 -9 -4 -8
-10 2 -9 13 -11 13 -20 0 -6 -10 -10 -11 -10 -2 0 6 -4 12 -10 12 -5 0 -6 -9
-1 -22 10 -28 58 -35 64 -10 4 15 5 15 6 0 2 -26 19 -22 24 5 l4 22 2 -22 c1
-17 7 -23 25 -23 18 0 26 7 29 23 l4 22 2 -22 c2 -31 21 -29 21 2 0 15 -6 25
-14 25 -8 0 -17 6 -19 13 -4 9 -8 8 -16 -3 -7 -10 -11 -11 -11 -2 0 6 -4 12
-10 12 -5 0 -10 -4 -10 -10z m27 -42 c-3 -8 -6 -5 -6 6 -1 11 2 17 5 13 3 -3
4 -12 1 -19z"/>
<path d="M429 2388 c-11 -39 -8 -48 20 -48 25 0 28 3 23 25 -3 16 -11 25 -23
25 -11 0 -19 -1 -20 -2z"/>
<path d="M484 2375 c-11 -29 26 -50 42 -23 5 8 2 9 -9 5 -11 -4 -17 -1 -17 8
0 9 6 12 15 9 8 -4 15 -1 15 5 0 16 -40 13 -46 -4z"/>
<path d="M537 2376 c-3 -7 -2 -17 1 -23 10 -14 102 -14 102 0 0 8 4 7 12 -1
22 -22 48 -14 48 13 0 31 -8 32 -20 3 l-9 -23 0 23 c-1 23 -21 32 -21 10 0 -9
-3 -10 -8 -2 -10 16 -99 15 -105 0z m38 -2 c13 -5 14 -8 3 -15 -19 -13 -28
-11 -28 6 0 17 2 18 25 9z m55 -9 c0 -8 -4 -15 -10 -15 -5 0 -10 7 -10 15 0 8
5 15 10 15 6 0 10 -7 10 -15z"/>
<path d="M710 2366 c0 -32 17 -34 23 -3 l4 22 2 -22 c0 -13 6 -23 12 -23 21 0
4 45 -18 48 -19 3 -23 -1 -23 -22z"/>
<path d="M530 2280 c0 -5 -11 -10 -25 -10 -20 0 -25 -5 -25 -24 l0 -24 118 -1
119 0 -5 25 c-5 28 -38 33 -45 7 -3 -11 -5 -7 -6 10 -1 20 -6 27 -21 27 -16 0
-20 -7 -21 -32 -1 -25 -3 -27 -6 -10 -3 17 -10 22 -26 20 -12 -2 -22 -8 -22
-15 0 -6 -4 -15 -8 -20 -5 -4 -8 1 -7 12 1 11 2 26 1 33 -1 14 -21 17 -21 2z"/>
<path d="M722 2258 c2 -17 8 -33 13 -35 9 -3 11 15 6 60 -1 4 -6 7 -12 7 -6 0
-9 -14 -7 -32z"/>
<path d="M1000 2280 c0 -5 -9 -10 -20 -10 -15 0 -20 -7 -20 -25 0 -20 5 -25
25 -25 22 0 25 4 25 35 0 19 -2 35 -5 35 -3 0 -5 -4 -5 -10z m-6 -41 c-3 -5
-10 -7 -15 -3 -5 3 -7 10 -3 15 3 5 10 7 15 3 5 -3 7 -10 3 -15z"/>
<path d="M402 2245 c0 -16 2 -22 5 -12 2 9 2 23 0 30 -3 6 -5 -1 -5 -18z"/>
<path d="M420 2245 c0 -31 17 -33 23 -2 l4 22 2 -22 c2 -31 21 -29 21 2 0 20
-5 25 -25 25 -20 0 -25 -5 -25 -25z"/>
<path d="M762 2245 c0 -16 2 -22 5 -12 2 9 2 23 0 30 -3 6 -5 -1 -5 -18z"/>
<path d="M787 2264 c-4 -4 -7 -16 -7 -26 0 -14 6 -19 23 -16 14 2 22 10 22 23
0 20 -25 32 -38 19z m27 -25 c-3 -5 -10 -7 -15 -3 -5 3 -7 10 -3 15 3 5 10 7
15 3 5 -3 7 -10 3 -15z"/>
<path d="M840 2245 c0 -31 17 -33 23 -2 l4 22 2 -22 c1 -22 21 -34 21 -13 0 6
10 11 23 11 20 1 20 2 2 6 -11 3 -24 9 -29 14 -20 19 -46 10 -46 -16z"/>
<path d="M942 2245 c0 -16 2 -22 5 -12 2 9 2 23 0 30 -3 6 -5 -1 -5 -18z"/>
<path d="M1025 2230 c-3 -5 -1 -10 4 -10 6 0 11 5 11 10 0 6 -2 10 -4 10 -3 0
-8 -4 -11 -10z"/>
<path d="M421 2135 c0 -38 1 -39 11 -15 11 25 11 25 15 3 4 -20 11 -23 46 -23
23 0 58 -3 78 -6 26 -4 40 -2 52 11 9 9 17 12 17 6 0 -6 11 -11 25 -11 22 0
25 4 25 35 0 19 -4 35 -10 35 -5 0 -10 -4 -10 -10 0 -5 -6 -10 -14 -10 -8 0
-17 -6 -19 -12 -4 -10 -6 -10 -6 0 -2 24 -21 12 -21 -14 0 -22 -4 -25 -27 -22
-23 2 -28 8 -29 31 -1 33 -12 46 -23 29 -11 -19 -90 -20 -101 -2 -7 11 -10 3
-9 -25z m106 -17 c-3 -8 -6 -5 -6 6 -1 11 2 17 5 13 3 -3 4 -12 1 -19z m143 7
c0 -8 -4 -15 -10 -15 -5 0 -10 7 -10 15 0 8 5 15 10 15 6 0 10 -7 10 -15z"/>
<path d="M731 2133 c0 -28 2 -33 8 -19 7 18 8 18 14 3 8 -22 24 -22 30 1 4 16
5 16 6 0 1 -21 37 -25 44 -5 4 10 7 10 18 0 22 -22 28 -14 16 22 -13 42 -32
45 -45 8 l-10 -28 -1 28 c-1 33 -27 37 -37 5 l-7 -23 -8 23 c-13 35 -29 26
-28 -15z"/>
<path d="M884 2135 c6 -19 13 -35 16 -35 8 0 30 63 24 69 -3 3 -9 -1 -13 -8
-6 -9 -11 -10 -15 -2 -15 24 -22 9 -12 -24z"/>
<path d="M970 2138 c0 -34 3 -38 25 -38 18 0 25 5 25 20 0 11 -8 24 -17 27
-10 4 -21 11 -25 17 -4 6 -8 -6 -8 -26z m34 -19 c-3 -5 -10 -7 -15 -3 -5 3 -7
10 -3 15 3 5 10 7 15 3 5 -3 7 -10 3 -15z"/>
<path d="M364 2135 c-11 -29 26 -50 42 -23 5 8 2 9 -9 5 -11 -4 -17 -1 -17 8
0 9 6 12 15 9 8 -4 15 -1 15 5 0 16 -40 13 -46 -4z"/>
<path d="M1037 2144 c-4 -4 -7 -16 -7 -26 0 -14 6 -19 23 -16 14 2 22 10 22
23 0 20 -25 32 -38 19z"/>
<path d="M460 2040 c0 -5 -7 -10 -15 -10 -8 0 -15 -5 -15 -10 0 -6 -8 -5 -21
2 -17 11 -22 10 -35 -6 -12 -17 -14 -18 -14 -3 0 10 -8 17 -20 17 -14 0 -20
-7 -20 -24 0 -22 4 -24 48 -24 26 1 50 6 54 12 5 8 8 7 8 -1 0 -7 11 -13 25
-13 22 0 25 4 25 35 0 19 -4 35 -10 35 -5 0 -10 -4 -10 -10z m0 -35 c0 -8 -4
-15 -10 -15 -5 0 -10 7 -10 15 0 8 5 15 10 15 6 0 10 -7 10 -15z"/>
<path d="M518 2038 c-3 -7 -2 -23 0 -36 4 -20 10 -23 41 -20 28 2 36 7 36 23
0 29 -33 31 -45 3 -9 -20 -10 -20 -9 -3 2 34 -1 45 -10 45 -5 0 -11 -5 -13
-12z m66 -39 c-3 -5 -10 -7 -15 -3 -5 3 -7 10 -3 15 3 5 10 7 15 3 5 -3 7 -10
3 -15z"/>
<path d="M950 2036 c0 -9 -7 -12 -21 -9 -12 3 -25 0 -29 -7 -15 -23 1 -39 36
-38 26 1 34 6 34 20 0 26 18 22 23 -4 4 -20 4 -19 6 5 1 18 -4 27 -14 27 -8 0
-15 5 -15 10 0 6 -4 10 -10 10 -5 0 -10 -6 -10 -14z m-15 -22 c13 -5 14 -8 3
-15 -19 -13 -28 -11 -28 6 0 17 2 18 25 9z"/>
<path d="M1070 2041 c0 -5 -12 -11 -27 -13 -20 -2 -29 -9 -31 -25 -3 -19 1
-23 22 -23 18 0 26 6 29 23 l4 22 2 -22 c0 -13 7 -23 14 -23 11 0 13 15 8 63
-1 10 -21 9 -21 -2z"/>
<path d="M1157 2043 c-11 -10 -8 -63 3 -63 6 0 10 8 11 18 0 9 2 25 4 35 3 17
-6 23 -18 10z"/>
<path d="M262 2008 c2 -15 11 -24 26 -26 18 -3 22 1 22 22 0 32 -8 33 -20 4
l-9 -23 0 23 c-1 12 -6 22 -12 22 -6 0 -9 -10 -7 -22z"/>
<path d="M637 2017 c-8 -21 8 -39 29 -35 27 5 25 42 -2 46 -12 2 -24 -3 -27
-11z m33 -12 c0 -8 -4 -15 -10 -15 -5 0 -10 7 -10 15 0 8 5 15 10 15 6 0 10
-7 10 -15z"/>
<path d="M701 1993 c0 -21 3 -32 6 -25 2 6 13 12 23 12 10 0 21 6 23 13 4 10
6 10 6 0 1 -7 10 -13 20 -13 11 0 22 6 24 13 4 10 6 10 6 0 2 -22 19 -14 24
10 l4 22 2 -22 c1 -31 21 -29 21 1 0 23 -4 25 -50 24 -30 0 -50 -4 -50 -11 0
-7 -4 -7 -12 1 -7 7 -20 12 -30 12 -14 0 -18 -8 -17 -37z m33 6 c-3 -5 -10 -7
-15 -3 -5 3 -7 10 -3 15 3 5 10 7 15 3 5 -3 7 -10 3 -15z"/>
<path d="M1132 2005 c0 -16 2 -22 5 -12 2 9 2 23 0 30 -3 6 -5 -1 -5 -18z"/>
<path d="M848 1919 c-2 -5 -27 -10 -56 -11 -28 0 -52 -4 -52 -10 0 -5 -6 -6
-12 -1 -7 4 -39 9 -70 10 -57 1 -58 0 -57 -25 l0 -27 11 25 c11 24 12 24 15 3
4 -18 11 -21 51 -21 26 1 50 6 54 12 5 8 8 7 8 -1 0 -7 9 -13 19 -13 11 0 22
6 24 13 4 10 6 10 6 0 2 -22 19 -14 24 10 l4 22 2 -22 c0 -13 5 -23 10 -23 5
0 12 10 14 23 l4 22 2 -22 c1 -17 7 -23 26 -23 14 0 25 4 25 10 0 5 -7 7 -16
3 -11 -4 -15 0 -14 13 4 31 1 44 -9 44 -5 0 -11 -5 -13 -11z"/>
<path d="M530 1876 c0 -20 5 -36 10 -36 6 0 10 4 10 9 0 5 9 11 21 14 31 8 21
41 -14 45 -25 3 -27 1 -27 -32z m40 9 c0 -8 -4 -15 -10 -15 -5 0 -10 7 -10 15
0 8 5 15 10 15 6 0 10 -7 10 -15z"/>
<path d="M730 1375 c0 -68 -2 -75 -20 -75 -19 0 -19 -1 2 -45 12 -25 25 -45
28 -45 3 0 16 20 28 45 21 44 21 45 2 45 -18 0 -20 7 -20 75 0 43 -4 75 -10
75 -6 0 -10 -32 -10 -75z"/>
<path d="M971 1153 c1 -21 3 -30 6 -21 2 9 14 19 26 21 l22 4 -22 2 c-13 0
-23 5 -23 10 0 5 10 12 23 14 19 4 18 4 -5 6 -26 1 -28 -2 -27 -36z"/>
<path d="M1113 1155 c0 -22 2 -30 4 -17 2 12 2 30 0 40 -3 9 -5 -1 -4 -23z"/>
<path d="M1030 1145 c0 -22 4 -25 35 -25 28 0 35 4 35 19 0 29 -18 35 -23 9
l-4 -23 -2 23 c-2 33 -41 31 -41 -3z"/>
<path d="M730 780 c0 -123 -1 -130 -20 -130 -19 0 -19 -1 2 -45 12 -25 25 -45
28 -45 3 0 16 20 28 45 21 44 21 45 2 45 -19 0 -20 7 -20 130 0 80 -4 130 -10
130 -6 0 -10 -50 -10 -130z"/>
<path d="M280 840 c0 -11 6 -20 14 -20 8 0 18 -5 22 -11 5 -9 -1 -10 -22 -5
-22 6 -26 5 -18 -4 15 -15 46 -10 52 8 2 7 -5 16 -17 19 -12 3 -21 10 -21 15
0 5 10 6 21 3 15 -5 19 -4 15 4 -12 19 -46 13 -46 -9z"/>
<path d="M344 815 c1 -13 9 -21 24 -23 18 -3 22 1 22 23 0 15 -4 24 -10 20 -5
-3 -10 -13 -10 -21 0 -20 -18 -18 -23 4 -3 13 -4 12 -3 -3z"/>
<path d="M407 833 c-15 -15 -7 -43 13 -43 11 0 20 4 20 10 0 5 -7 7 -15 4 -10
-4 -15 0 -15 11 0 11 5 15 15 11 8 -3 15 -1 15 4 0 11 -23 13 -33 3z"/>
<path d="M454 825 c-11 -27 25 -50 40 -26 3 5 0 8 -7 7 -6 0 -12 4 -12 9 0 6
6 9 12 9 7 -1 10 2 7 7 -8 14 -34 10 -40 -6z"/>
<path d="M513 824 c-7 -18 5 -34 25 -33 14 0 13 2 -3 8 -17 7 -17 8 8 13 19 4
27 1 27 -8 0 -16 26 -19 35 -4 3 6 -1 13 -10 16 -12 5 -13 9 -5 14 6 4 -7 7
-30 7 -25 0 -44 -5 -47 -13z"/>
<path d="M620 816 c0 -20 5 -26 21 -26 15 0 20 5 17 22 -5 34 -38 37 -38 4z"/>
<path d="M694 510 c-11 -4 -33 -22 -47 -40 -59 -69 -15 -182 75 -197 138 -22
200 171 73 231 -36 17 -68 19 -101 6z m118 -27 c57 -51 55 -128 -5 -179 -68
-57 -177 -4 -177 87 0 51 13 75 53 100 38 24 98 20 129 -8z"/>
<path d="M676 449 c-33 -39 -33 -69 0 -108 52 -62 154 -28 154 52 0 82 -101
119 -154 56z"/>
<path d="M240 175 c0 -32 3 -36 23 -33 16 2 23 11 25 31 2 15 -1 27 -7 27 -5
0 -16 3 -25 6 -13 5 -16 -1 -16 -31z m38 -3 c-5 -27 -28 -26 -28 2 0 19 4 24
15 19 9 -3 15 -12 13 -21z"/>
<path d="M538 195 c-7 -7 3 -55 11 -55 8 0 7 47 -1 55 -2 3 -7 3 -10 0z"/>
<path d="M708 189 c-25 -14 -23 -49 2 -49 16 0 20 7 20 30 0 17 -1 30 -2 30
-2 0 -11 -5 -20 -11z m12 -24 c0 -8 -4 -15 -10 -15 -5 0 -10 7 -10 15 0 8 5
15 10 15 6 0 10 -7 10 -15z"/>
<path d="M1058 195 c-7 -7 3 -55 11 -55 8 0 7 47 -1 55 -2 3 -7 3 -10 0z"/>
<path d="M1110 172 c0 -18 4 -32 8 -32 9 0 8 47 -1 57 -4 3 -7 -8 -7 -25z"/>
<path d="M304 176 c-7 -19 3 -36 22 -36 10 0 14 8 12 22 -4 26 -26 36 -34 14z"/>
<path d="M354 175 c-3 -8 -3 -19 1 -25 8 -13 35 -13 35 0 0 5 -7 7 -15 4 -10
-4 -15 0 -15 11 0 11 5 15 15 11 8 -3 15 -1 15 4 0 16 -30 12 -36 -5z"/>
<path d="M401 163 c0 -27 0 -28 10 -5 11 29 32 18 26 -14 -6 -32 11 -31 23 2
13 34 13 53 -1 34 -8 -11 -12 -12 -16 -2 -2 6 -13 12 -24 12 -14 0 -19 -7 -18
-27z"/>
<path d="M480 153 c0 -21 4 -33 8 -27 4 6 15 13 25 17 25 9 17 41 -11 45 -19
3 -22 -1 -22 -35z m31 4 c-13 -13 -26 -3 -16 12 3 6 11 8 17 5 6 -4 6 -10 -1
-17z"/>
<path d="M590 165 c0 -18 5 -25 20 -25 15 0 20 7 20 25 0 18 -5 25 -20 25 -15
0 -20 -7 -20 -25z"/>
<path d="M641 163 c2 -24 2 -25 6 -5 2 12 8 22 13 22 5 0 11 -10 13 -22 4 -20
4 -19 6 5 1 21 -4 27 -19 27 -15 0 -20 -6 -19 -27z"/>
<path d="M770 152 c0 -25 3 -33 9 -23 5 7 20 14 34 14 18 -1 26 6 29 21 4 19
0 22 -34 23 -37 2 -38 1 -38 -35z m31 5 c-13 -13 -26 -3 -16 12 3 6 11 8 17 5
6 -4 6 -10 -1 -17z"/>
<path d="M853 174 c-7 -18 5 -34 25 -34 13 0 14 2 4 9 -11 6 -9 9 6 13 25 7
51 -7 31 -15 -10 -4 -9 -6 4 -6 11 -1 17 6 17 23 0 21 -5 23 -41 23 -24 0 -43
-5 -46 -13z"/>
<path d="M954 175 c-8 -19 3 -35 24 -34 14 0 13 2 -3 9 -17 7 -17 9 -2 9 21 1
23 31 2 31 -9 0 -18 -7 -21 -15z"/>
<path d="M1001 163 l0 -28 11 25 11 25 7 -25 8 -25 1 28 c1 21 -4 27 -19 27
-15 0 -20 -6 -19 -27z"/>
<path d="M1144 175 c-7 -18 3 -35 21 -35 15 0 24 19 18 38 -6 17 -32 15 -39
-3z m26 -10 c0 -8 -4 -15 -10 -15 -5 0 -10 7 -10 15 0 8 5 15 10 15 6 0 10 -7
10 -15z"/>
<path d="M1221 168 c-1 -22 4 -28 19 -28 15 0 20 6 19 28 -2 23 -2 24 -6 5 -2
-13 -8 -23 -13 -23 -5 0 -11 10 -13 23 -4 19 -4 18 -6 -5z"/>
<path d="M1270 166 c0 -22 4 -25 41 -24 27 0 37 3 28 9 -11 7 -10 9 4 9 9 0
17 -4 17 -10 0 -20 18 -9 22 13 4 20 0 23 -29 24 -23 1 -36 -5 -44 -18 -5 -10
-15 -19 -22 -19 -7 0 -6 4 3 10 13 9 13 10 0 10 -13 0 -13 1 0 10 13 8 12 10
-2 10 -12 0 -18 -8 -18 -24z"/>
<path d="M2590 4125 c0 -58 -2 -65 -20 -65 -19 0 -19 -1 2 -45 12 -25 25 -45
28 -45 3 0 16 20 28 45 21 44 21 45 2 45 -18 0 -20 7 -20 65 0 37 -4 65 -10
65 -6 0 -10 -28 -10 -65z"/>
<path d="M2271 3963 c1 -21 3 -30 6 -21 2 9 12 19 21 21 15 4 15 5 0 6 -26 2
-22 19 5 24 19 4 18 4 -5 6 -26 1 -28 -2 -27 -36z"/>
<path d="M2413 3965 c0 -22 2 -30 4 -17 2 12 2 30 0 40 -3 9 -5 -1 -4 -23z"/>
<path d="M2750 3955 c0 -19 5 -35 10 -35 6 0 10 6 10 14 0 8 8 17 18 19 16 4
16 5 0 6 -10 0 -18 5 -18 10 0 5 8 12 18 14 10 3 6 5 -10 6 -25 1 -28 -2 -28
-34z"/>
<path d="M2893 3955 c0 -22 2 -30 4 -17 2 12 2 30 0 40 -3 9 -5 -1 -4 -23z"/>
<path d="M2327 3961 c-6 -24 0 -31 25 -31 14 0 19 6 16 22 -4 29 -34 36 -41 9z"/>
<path d="M2382 3955 c0 -16 2 -22 5 -12 2 9 2 23 0 30 -3 6 -5 -1 -5 -18z"/>
<path d="M2817 3963 c-17 -16 -6 -43 17 -43 19 0 22 4 18 25 -4 24 -21 33 -35
18z"/>
<path d="M2872 3945 c0 -16 2 -22 5 -12 2 9 2 23 0 30 -3 6 -5 -1 -5 -18z"/>
<path d="M2580 3555 c0 -148 -1 -155 -20 -155 -19 0 -19 -1 2 -45 12 -25 25
-45 28 -45 3 0 16 20 28 45 21 44 21 45 2 45 -19 0 -20 7 -20 155 0 97 -4 155
-10 155 -6 0 -10 -58 -10 -155z"/>
<path d="M2155 3620 c-8 -14 3 -30 21 -30 8 0 14 -5 14 -11 0 -6 -9 -8 -22 -4
-18 6 -20 4 -12 -5 14 -15 46 -10 52 8 2 7 -5 16 -17 19 -12 3 -21 10 -21 15
0 6 7 8 15 4 8 -3 15 -1 15 4 0 13 -37 13 -45 0z"/>
<path d="M2221 3588 c-1 -22 4 -28 19 -28 15 0 20 6 19 28 -2 23 -2 24 -6 5
-2 -13 -8 -23 -13 -23 -5 0 -11 10 -13 23 -4 19 -4 18 -6 -5z"/>
<path d="M2274 3595 c-11 -27 25 -50 40 -26 3 5 0 8 -7 7 -6 0 -12 4 -12 9 0
6 6 9 12 9 7 -1 10 2 7 7 -8 14 -34 10 -40 -6z"/>
<path d="M2337 3603 c-15 -15 -7 -43 13 -43 11 0 20 4 20 10 0 5 -7 7 -15 4
-10 -4 -15 0 -15 11 0 11 5 15 15 11 8 -3 15 -1 15 4 0 11 -23 13 -33 3z"/>
<path d="M2384 3595 c-4 -9 -2 -21 4 -27 15 -15 44 -1 40 19 -4 23 -36 29 -44
8z"/>
<path d="M2443 3585 c0 -18 5 -25 18 -25 14 0 19 7 19 25 0 18 -5 25 -19 25
-13 0 -18 -7 -18 -25z"/>
<path d="M2493 3585 c0 -18 5 -25 18 -25 14 0 19 7 19 25 0 18 -5 25 -19 25
-13 0 -18 -7 -18 -25z"/>
<path d="M2035 2446 c-41 -18 -83 -69 -90 -109 -4 -18 -5 -112 -3 -209 3 -193
6 -203 72 -252 27 -21 38 -21 576 -21 538 0 549 0 576 21 68 50 69 55 69 279
0 224 -1 229 -69 279 -27 21 -39 21 -564 23 -431 2 -543 0 -567 -11z m1104
-24 c71 -35 76 -52 79 -255 3 -201 -3 -229 -61 -271 -28 -21 -40 -21 -555 -24
-487 -2 -530 -1 -561 15 -69 36 -76 55 -79 240 -2 91 -1 181 3 199 8 44 49 92
88 103 18 5 262 10 542 10 467 1 513 -1 544 -17z"/>
<path d="M2097 2294 c-4 -4 -7 -20 -7 -35 0 -27 2 -28 48 -27 26 0 50 6 54 12
5 7 8 6 9 -4 0 -8 4 -4 9 10 l7 25 11 -25 11 -25 0 28 c1 21 -4 27 -19 27 -11
0 -20 -5 -20 -10 0 -6 -8 -5 -20 2 -17 11 -22 10 -29 -1 -7 -10 -12 -11 -27
-1 -18 11 -18 11 -1 6 12 -4 17 -2 15 6 -5 15 -31 22 -41 12z m23 -44 c0 -5
-4 -10 -10 -10 -5 0 -10 5 -10 10 0 6 5 10 10 10 6 0 10 -4 10 -10z"/>
<path d="M2280 2291 c0 -6 -7 -11 -15 -11 -9 0 -15 -9 -15 -25 0 -20 5 -25 25
-25 21 0 25 5 25 29 0 17 -4 33 -10 36 -5 3 -10 1 -10 -4z m0 -36 c0 -8 -4
-15 -10 -15 -5 0 -10 7 -10 15 0 8 5 15 10 15 6 0 10 -7 10 -15z"/>
<path d="M2330 2265 c0 -35 13 -47 24 -22 5 10 7 10 12 0 3 -7 18 -13 34 -13
16 0 31 6 33 13 4 10 6 10 6 0 1 -7 8 -13 16 -13 8 0 15 -4 15 -10 0 -5 5 -10
10 -10 6 0 10 15 10 34 0 34 0 34 -45 34 -30 -1 -49 -7 -56 -17 -10 -14 -10
-14 -6 0 7 20 -11 39 -35 39 -14 0 -18 -8 -18 -35z m140 -11 c0 -8 -5 -12 -10
-9 -6 4 -8 11 -5 16 9 14 15 11 15 -7z"/>
<path d="M3045 2290 c-4 -6 -15 -10 -26 -10 -14 0 -19 -7 -19 -25 0 -21 5 -25
29 -25 23 0 31 5 34 23 l4 22 2 -22 c1 -27 21 -31 21 -5 0 21 -37 55 -45 42z"/>
<path d="M2628 2282 c-22 -3 -28 -9 -28 -28 0 -32 37 -34 43 -1 l4 22 2 -22
c0 -13 5 -23 9 -23 8 0 9 48 1 53 -2 1 -16 1 -31 -1z"/>
<path d="M2698 2284 c-3 -2 -3 -16 0 -29 4 -21 10 -25 38 -25 35 0 56 23 38
39 -11 10 -70 22 -76 15z m29 -36 c-3 -8 -6 -5 -6 6 -1 11 2 17 5 13 3 -3 4
-12 1 -19z m29 -5 c-10 -10 -19 5 -10 18 6 11 8 11 12 0 2 -7 1 -15 -2 -18z"/>
<path d="M2501 2258 c-1 -22 4 -28 19 -28 15 0 20 6 19 28 l0 27 -11 -25 -11
-25 -7 25 -8 25 -1 -27z"/>
<path d="M2550 2255 c0 -18 5 -25 20 -25 15 0 20 7 20 25 0 18 -5 25 -20 25
-15 0 -20 -7 -20 -25z"/>
<path d="M2810 2244 c0 -27 4 -34 19 -34 10 0 21 6 24 13 3 9 18 12 40 11 30
-3 36 1 40 19 l4 22 8 -22 c11 -34 45 -30 44 5 l0 27 -11 -25 c-11 -24 -12
-24 -15 -3 -4 19 -10 21 -79 21 l-74 0 0 -34z m30 11 c0 -8 -4 -15 -10 -15 -5
0 -10 7 -10 15 0 8 5 15 10 15 6 0 10 -7 10 -15z m50 -1 c0 -8 -5 -12 -10 -9
-6 4 -8 11 -5 16 9 14 15 11 15 -7z"/>
<path d="M2167 2183 c-13 -12 -7 -33 8 -33 8 0 15 -5 15 -11 0 -6 -9 -8 -21
-4 -13 5 -19 3 -15 -3 3 -5 33 -10 66 -9 54 1 60 3 61 21 0 20 0 20 16 -1 19
-27 33 -30 33 -5 1 16 1 16 10 0 14 -23 70 -21 70 3 0 9 6 20 13 22 6 3 -13 5
-43 4 -30 0 -58 -6 -62 -11 -5 -7 -8 -7 -8 1 0 14 -78 16 -95 2 -6 -4 -17 -4
-25 1 -12 8 -12 10 3 10 10 0 15 5 12 10 -7 11 -28 13 -38 3z"/>
<path d="M2510 2170 c-10 -14 -16 -16 -22 -7 -6 9 -10 9 -17 -2 -7 -11 -9 -11
-13 0 -3 8 -8 12 -10 9 -12 -12 13 -50 32 -50 12 0 24 9 30 23 9 22 9 22 10
-3 l2 -25 7 25 c7 25 7 25 13 3 4 -14 14 -23 26 -23 13 0 22 8 25 23 l4 22 2
-22 c1 -28 21 -31 21 -4 0 10 -11 26 -25 35 -14 9 -25 12 -25 7 0 -10 -32 -9
-40 1 -3 4 -12 -1 -20 -12z m57 -32 c-3 -8 -6 -5 -6 6 -1 11 2 17 5 13 3 -3 4
-12 1 -19z"/>
<path d="M2650 2155 c0 -35 13 -47 24 -22 5 10 7 10 12 0 3 -7 18 -13 34 -13
16 0 31 6 33 13 4 10 6 10 6 0 1 -7 8 -13 16 -13 8 0 15 -4 15 -10 0 -5 5 -10
10 -10 6 0 10 15 10 34 0 34 0 34 -45 34 -30 -1 -49 -7 -56 -17 -10 -14 -10
-14 -6 0 7 20 -11 39 -35 39 -14 0 -18 -8 -18 -35z m140 -11 c0 -8 -5 -12 -10
-9 -6 4 -8 11 -5 16 9 14 15 11 15 -7z"/>
<path d="M2873 2155 c0 -22 2 -30 4 -17 2 12 2 30 0 40 -3 9 -5 -1 -4 -23z"/>
<path d="M3000 2181 c0 -6 -6 -11 -14 -11 -8 0 -17 -6 -19 -12 -4 -10 -6 -10
-6 0 -1 7 -15 12 -36 12 -32 0 -35 -3 -34 -27 l0 -28 11 25 c11 25 11 25 15 3
5 -25 38 -32 46 -10 4 10 6 10 6 0 1 -7 12 -13 26 -13 21 0 25 5 25 29 0 17
-4 33 -10 36 -5 3 -10 1 -10 -4z m0 -36 c0 -8 -4 -15 -10 -15 -5 0 -10 7 -10
15 0 8 5 15 10 15 6 0 10 -7 10 -15z"/>
<path d="M2821 2148 c-1 -22 4 -28 19 -28 15 0 20 6 19 28 l0 27 -11 -25 -11
-25 -7 25 -8 25 -1 -27z"/>
<path d="M2357 2073 c-11 -10 -8 -63 3 -63 6 0 10 16 10 35 0 36 -2 40 -13 28z"/>
<path d="M2437 2073 c-10 -10 -8 -63 2 -63 5 0 12 10 14 23 l4 22 2 -22 c1
-19 7 -22 36 -21 26 1 35 6 38 22 4 20 4 20 6 -1 0 -13 5 -23 10 -23 5 0 12
10 14 23 l4 22 2 -22 c0 -13 5 -23 10 -23 5 0 12 10 14 23 l4 22 2 -22 c1 -19
7 -23 37 -23 31 0 35 3 32 23 -2 14 -10 22 -23 22 -12 0 -19 -6 -17 -15 2 -11
-2 -10 -12 3 -11 14 -26 18 -63 17 -81 -3 -105 -1 -98 10 7 11 -8 14 -18 3z
m49 -50 c-10 -10 -19 5 -10 18 6 11 8 11 12 0 2 -7 1 -15 -2 -18z"/>
<path d="M2711 2072 c-1 -7 -7 -12 -14 -10 -14 3 -17 -2 -17 -31 0 -16 7 -19
46 -19 41 0 45 2 42 21 -2 14 -10 22 -23 22 -11 0 -23 7 -27 15 -4 10 -7 11
-7 2z m-14 -44 c-3 -8 -6 -5 -6 6 -1 11 2 17 5 13 3 -3 4 -12 1 -19z m58 13
c3 -5 1 -12 -5 -16 -5 -3 -10 1 -10 9 0 18 6 21 15 7z"/>
<path d="M2381 2033 l0 -28 11 25 11 25 7 -25 8 -25 1 28 c1 21 -4 27 -19 27
-15 0 -20 -6 -19 -27z"/>
<path d="M2781 2033 l0 -28 11 25 11 25 7 -25 8 -25 1 28 c1 21 -4 27 -19 27
-15 0 -20 -6 -19 -27z"/>
<path d="M4115 3216 c-41 -18 -83 -69 -90 -109 -4 -18 -5 -116 -3 -219 3 -204
6 -213 72 -262 26 -20 40 -21 366 -21 326 0 340 1 366 21 68 50 69 54 69 289
0 235 -1 239 -69 289 -26 20 -42 21 -354 23 -257 2 -334 0 -357 -11z m684 -24
c71 -36 76 -51 79 -265 3 -212 -3 -238 -61 -281 -27 -20 -43 -21 -345 -24
-350 -3 -360 -1 -406 61 -19 26 -21 45 -24 204 -2 97 -1 191 3 209 8 44 49 92
88 103 18 5 167 10 332 10 267 1 304 -1 334 -17z"/>
<path d="M4121 2986 c-19 -23 -9 -49 22 -57 27 -7 28 -7 25 29 -3 40 -26 54
-47 28z m39 -20 c0 -8 -7 -16 -15 -20 -10 -4 -15 1 -15 14 0 11 7 20 15 20 8
0 15 -6 15 -14z"/>
<path d="M4388 2988 c-3 -7 -1 -24 3 -38 4 -14 8 -18 8 -10 1 8 4 25 7 38 7
23 -10 32 -18 10z"/>
<path d="M4527 2993 c-10 -10 -8 -63 2 -63 5 0 11 6 14 13 3 9 7 9 18 1 19
-15 162 -16 171 -1 5 9 8 8 9 -3 0 -8 5 -4 9 10 l8 25 8 -25 8 -25 7 25 c7 24
7 24 8 3 1 -13 7 -23 14 -23 7 0 12 11 11 28 -1 25 -4 27 -35 24 -19 -2 -35
-8 -37 -13 -2 -4 -13 -3 -24 4 -16 9 -22 9 -25 -1 -3 -7 -13 -17 -24 -22 -15
-8 -19 -7 -19 4 0 10 6 13 15 10 8 -4 15 -1 15 5 0 6 -9 11 -20 11 -11 0 -20
-5 -20 -10 0 -6 -8 -5 -20 2 -17 11 -22 10 -29 0 -6 -10 -10 -9 -14 7 -5 20
-36 29 -50 14z"/>
<path d="M4181 2958 c-1 -22 4 -28 19 -28 15 0 20 6 19 28 -2 23 -2 24 -6 5
-2 -13 -8 -23 -13 -23 -5 0 -11 10 -13 23 -4 19 -4 18 -6 -5z"/>
<path d="M4235 2972 c-3 -3 -5 -14 -5 -24 0 -21 35 -25 43 -5 4 10 6 10 6 0 2
-22 21 -14 21 8 0 12 4 17 11 13 6 -3 9 -17 6 -30 -6 -35 12 -29 28 9 14 34
11 52 -5 27 -6 -10 -10 -11 -10 -3 0 12 -83 17 -95 5z"/>
<path d="M4414 2965 c-3 -8 -3 -19 1 -25 9 -14 45 -13 45 3 0 9 2 9 8 0 5 -8
11 -3 19 13 9 19 8 24 -3 24 -8 0 -14 -5 -14 -12 0 -9 -3 -9 -12 0 -16 16 -37
15 -44 -3z m31 -4 c3 -5 1 -12 -5 -16 -5 -3 -10 1 -10 9 0 18 6 21 15 7z"/>
<path d="M4122 2859 c4 -40 32 -51 54 -22 11 15 13 15 8 1 -5 -14 2 -16 40
-16 42 0 46 2 46 24 0 17 -6 24 -20 24 -11 0 -20 -6 -20 -12 0 -10 -3 -9 -9 1
-5 7 -15 11 -22 9 -8 -3 -19 2 -26 11 -11 14 -12 11 -13 -16 0 -18 -4 -33 -10
-33 -5 0 -10 11 -10 24 0 14 -5 28 -11 31 -7 5 -9 -5 -7 -26z"/>
<path d="M4343 2855 c0 -22 2 -30 4 -17 2 12 2 30 0 40 -3 9 -5 -1 -4 -23z"/>
<path d="M4418 2878 c-3 -7 -1 -24 3 -38 4 -14 8 -18 8 -10 1 8 4 25 7 38 7
23 -10 32 -18 10z"/>
<path d="M4691 2882 c-1 -7 -7 -12 -14 -10 -14 3 -17 -2 -17 -31 0 -16 7 -19
45 -19 28 0 45 4 45 11 0 8 3 7 9 -1 6 -10 10 -8 16 10 l7 23 8 -25 8 -25 1
28 c1 20 -4 27 -18 27 -11 0 -22 -6 -24 -12 -4 -10 -6 -10 -6 0 -1 6 -10 12
-21 12 -11 0 -20 -6 -21 -12 -1 -7 -5 -2 -9 12 -4 14 -8 19 -9 12z m-14 -44
c-3 -8 -6 -5 -6 6 -1 11 2 17 5 13 3 -3 4 -12 1 -19z m63 7 c0 -8 -4 -15 -10
-15 -5 0 -10 7 -10 15 0 8 5 15 10 15 6 0 10 -7 10 -15z"/>
<path d="M4281 2843 c0 -16 3 -22 6 -13 3 8 10 21 16 28 7 8 5 12 -7 12 -11 0
-16 -8 -15 -27z"/>
<path d="M4360 2846 c0 -32 17 -34 23 -3 l4 22 2 -22 c0 -13 6 -23 12 -23 21
0 4 45 -18 48 -19 3 -23 -1 -23 -22z"/>
<path d="M4444 2855 c-9 -22 4 -34 36 -33 21 1 30 7 33 22 4 20 5 19 13 -4 l8
-25 7 25 c7 24 7 24 8 3 1 -13 5 -23 10 -23 5 0 12 10 14 23 l4 22 2 -22 c1
-19 7 -23 37 -23 31 0 35 3 32 23 -3 21 -8 22 -101 24 -76 2 -99 -1 -103 -12z
m26 -11 c0 -8 -5 -12 -10 -9 -6 4 -8 11 -5 16 9 14 15 11 15 -7z"/>
<path d="M4415 1146 c-45 -20 -67 -50 -72 -99 -9 -81 42 -137 126 -137 50 0
96 37 112 90 28 91 -79 186 -166 146z m113 -22 c13 -9 30 -32 39 -52 31 -75
-22 -152 -107 -152 -34 0 -48 6 -76 34 -46 46 -48 100 -4 150 43 48 94 55 148
20z"/>
<path d="M4407 1100 c-50 -39 -42 -117 15 -146 89 -46 170 66 99 137 -35 35
-77 38 -114 9z"/>
<path d="M3980 745 c0 -19 5 -35 10 -35 6 0 10 7 10 15 0 20 17 19 29 -2 8
-15 10 -11 11 20 0 35 -2 37 -30 37 -28 0 -30 -3 -30 -35z m50 15 c0 -5 -7
-10 -15 -10 -8 0 -15 5 -15 10 0 6 7 10 15 10 8 0 15 -4 15 -10z"/>
<path d="M4112 748 c2 -25 8 -34 26 -36 17 -3 22 2 22 17 0 28 18 27 23 -1 4
-20 4 -19 6 5 1 24 -3 27 -29 27 -16 0 -30 5 -30 10 0 6 -5 10 -11 10 -6 0 -9
-14 -7 -32z m25 -20 c-3 -8 -6 -5 -6 6 -1 11 2 17 5 13 3 -3 4 -12 1 -19z"/>
<path d="M4390 745 c0 -36 15 -48 23 -17 4 16 5 16 6 0 1 -25 18 -22 27 5 l8
22 7 -25 c6 -22 7 -20 8 13 1 42 -10 48 -27 15 l-11 -23 -7 23 c-10 36 -34 27
-34 -13z"/>
<path d="M4918 768 c-3 -7 -1 -24 3 -38 6 -21 7 -22 9 -5 1 11 3 28 5 38 4 19
-11 24 -17 5z"/>
<path d="M4056 745 c-8 -22 1 -35 25 -35 15 0 20 6 17 22 -4 27 -33 36 -42 13z"/>
<path d="M4204 745 c-3 -8 -3 -19 1 -25 11 -18 35 -11 44 12 l8 23 7 -23 c9
-26 21 -29 30 -6 10 25 7 41 -4 24 -7 -10 -13 -11 -17 -5 -12 17 -63 17 -69 0z"/>
<path d="M4314 746 c-8 -20 3 -36 24 -35 14 0 13 2 -3 9 -19 8 -19 9 3 9 14 1
22 6 20 14 -7 18 -37 21 -44 3z"/>
<path d="M4484 745 c-4 -9 -2 -21 4 -27 15 -15 44 -1 40 19 -4 23 -36 29 -44
8z"/>
<path d="M4540 736 c0 -20 5 -26 21 -26 15 0 20 5 17 22 -5 34 -38 37 -38 4z"/>
<path d="M4593 736 c0 -22 4 -24 47 -24 45 -1 47 0 42 24 -5 28 -27 32 -41 7
-10 -17 -10 -17 -11 0 0 10 -8 17 -19 17 -13 0 -18 -7 -18 -24z"/>
<path d="M4700 725 c0 -28 4 -35 19 -35 10 0 21 6 24 14 3 9 15 12 31 9 21 -4
26 -2 26 16 0 26 -28 40 -41 20 -6 -10 -9 -10 -9 -1 0 6 -11 12 -25 12 -22 0
-25 -4 -25 -35z m30 10 c0 -8 -4 -15 -10 -15 -5 0 -10 7 -10 15 0 8 5 15 10
15 6 0 10 -7 10 -15z"/>
<path d="M4819 758 c-10 -35 6 -59 30 -44 13 9 1 46 -15 46 -8 0 -14 -1 -15
-2z"/>
<path d="M4890 736 c0 -14 5 -26 10 -26 6 0 10 9 10 19 0 11 -4 23 -10 26 -6
4 -10 -5 -10 -19z"/>
<path d="M4630 651 c0 -5 -9 -11 -21 -14 -28 -7 -21 -41 9 -45 19 -3 22 1 22
32 0 20 -2 36 -5 36 -3 0 -5 -4 -5 -9z m0 -36 c0 -8 -4 -15 -9 -15 -13 0 -22
16 -14 24 11 11 23 6 23 -9z"/>
<path d="M4798 649 c-6 -17 2 -59 11 -59 8 0 6 58 -2 66 -3 3 -7 0 -9 -7z"/>
<path d="M4101 613 l0 -28 11 25 11 25 6 -25 7 -25 8 25 c8 25 9 25 13 3 2
-13 9 -23 14 -23 6 0 9 10 7 23 -2 18 -10 23 -40 25 -36 3 -38 2 -37 -25z"/>
<path d="M4197 633 c-15 -15 -7 -43 13 -43 15 0 20 7 20 25 0 24 -18 34 -33
18z"/>
<path d="M4249 638 c-10 -35 6 -59 30 -44 13 9 1 46 -15 46 -8 0 -14 -1 -15
-2z"/>
<path d="M4298 634 c-10 -9 4 -44 18 -44 20 0 27 19 9 26 -13 6 -14 8 -3 15
10 7 10 9 -3 9 -9 0 -18 -3 -21 -6z"/>
<path d="M4350 614 c0 -22 4 -25 28 -24 15 1 36 1 47 0 l20 -1 -20 -10 -20 -9
20 3 c15 1 21 11 23 35 3 27 0 32 -18 32 -12 0 -24 -9 -30 -22 l-9 -23 0 23
c-1 34 -41 31 -41 -4z m90 8 c0 -13 -12 -22 -22 -16 -10 6 -1 24 13 24 5 0 9
-4 9 -8z"/>
<path d="M4464 625 c-4 -9 -2 -21 4 -27 15 -15 44 -1 40 19 -4 23 -36 29 -44
8z"/>
<path d="M4572 615 c0 -16 2 -22 5 -12 2 9 2 23 0 30 -3 6 -5 -1 -5 -18z"/>
<path d="M4681 613 l0 -28 11 25 c11 25 11 25 15 3 3 -13 9 -23 14 -23 22 0 4
45 -18 48 -19 3 -23 -1 -22 -25z"/>
<path d="M4747 634 c-4 -4 -7 -16 -7 -26 0 -14 6 -19 23 -16 14 2 22 10 22 23
0 20 -25 32 -38 19z m25 -19 c0 -5 -5 -11 -11 -13 -6 -2 -11 4 -11 13 0 9 5
15 11 13 6 -2 11 -8 11 -13z"/>
<path d="M4608 529 c-6 -17 2 -59 11 -59 8 0 6 58 -2 66 -3 3 -7 0 -9 -7z"/>
<path d="M4291 483 c0 -21 3 -32 6 -25 2 6 14 12 25 12 29 0 21 44 -9 48 -21
3 -23 -1 -22 -35z m39 12 c0 -8 -4 -15 -9 -15 -13 0 -22 16 -14 24 11 11 23 6
23 -9z"/>
<path d="M4350 495 c0 -14 4 -25 9 -25 5 0 11 11 13 25 4 17 1 25 -8 25 -8 0
-14 -11 -14 -25z"/>
<path d="M4386 505 c-8 -22 1 -35 25 -35 15 0 20 6 17 22 -4 27 -33 36 -42 13z"/>
<path d="M4443 495 c0 -18 5 -25 18 -25 14 0 19 7 19 25 0 18 -5 25 -19 25
-13 0 -18 -7 -18 -25z"/>
<path d="M4494 505 c-4 -9 -2 -21 4 -27 15 -15 44 -1 40 19 -4 23 -36 29 -44
8z"/>
<path d="M4551 493 c2 -24 2 -25 6 -5 2 12 8 22 13 22 5 0 11 -10 13 -22 4
-20 4 -19 6 5 1 21 -4 27 -19 27 -15 0 -20 -6 -19 -27z"/>
<path d="M2200 4675 c-17 -20 -3 -52 25 -58 18 -3 25 0 25 12 0 11 3 12 8 4 4
-7 30 -11 65 -11 51 1 57 4 57 22 1 20 1 20 15 3 7 -11 11 -25 8 -33 -3 -8 -1
-14 5 -14 12 0 35 60 27 69 -4 3 -10 -1 -15 -9 -6 -9 -10 -10 -10 -3 0 8 -19
12 -60 11 -51 -1 -60 -4 -63 -22 -4 -20 -4 -20 -6 -1 -1 11 -13 26 -28 33 -34
15 -38 15 -53 -3z m40 -19 c0 -8 -7 -16 -15 -20 -10 -4 -15 1 -15 14 0 11 7
20 15 20 8 0 15 -6 15 -14z"/>
<path d="M2473 4678 c-5 -7 -7 -24 -3 -38 6 -24 7 -23 13 9 8 38 5 48 -10 29z"/>
<path d="M2611 4653 c0 -21 3 -32 6 -25 2 6 11 12 18 12 7 0 16 -6 19 -12 3
-7 4 3 3 22 -2 28 -7 36 -24 38 -21 3 -23 -1 -22 -35z m36 11 c-3 -3 -12 -4
-19 -1 -8 3 -5 6 6 6 11 1 17 -2 13 -5z"/>
<path d="M2872 4654 c4 -36 24 -42 22 -7 0 15 -6 29 -13 31 -8 3 -11 -5 -9
-24z"/>
<path d="M2496 4654 c-3 -9 -4 -20 0 -25 8 -14 44 -11 44 4 0 9 2 9 8 0 5 -8
11 -3 19 13 9 19 8 24 -2 24 -7 0 -16 -6 -18 -12 -4 -10 -6 -10 -6 0 -1 18
-38 15 -45 -4z m34 -9 c0 -8 -4 -15 -10 -15 -5 0 -10 7 -10 15 0 8 5 15 10 15
6 0 10 -7 10 -15z"/>
<path d="M2670 4645 c0 -18 5 -25 19 -25 11 0 22 6 24 13 4 10 6 10 6 0 1 -15
41 -18 41 -3 0 5 -7 7 -15 4 -10 -4 -15 0 -15 11 0 11 5 15 15 11 8 -3 15 -1
15 4 0 15 -37 12 -43 -2 -4 -10 -6 -10 -6 0 -1 6 -10 12 -21 12 -15 0 -20 -7
-20 -25z"/>
<path d="M2770 4645 c0 -18 5 -25 20 -25 15 0 20 7 20 25 0 18 -5 25 -20 25
-15 0 -20 -7 -20 -25z"/>
<path d="M2821 4643 l0 -28 11 25 11 25 7 -25 8 -25 1 28 c1 21 -4 27 -19 27
-15 0 -20 -6 -19 -27z"/>
<path d="M2202 4549 c4 -40 32 -51 54 -22 12 15 13 15 8 1 -5 -14 1 -17 38
-16 23 0 46 5 50 12 6 8 8 7 8 -1 0 -23 18 -14 22 11 4 21 1 24 -29 24 -20 0
-37 -6 -43 -16 -8 -15 -9 -15 -10 1 0 12 -6 17 -17 15 -10 -2 -23 3 -30 12
-10 13 -12 10 -13 -17 0 -18 -4 -33 -10 -33 -5 0 -10 11 -10 24 0 14 -5 28
-11 31 -7 5 -9 -5 -7 -26z"/>
<path d="M2420 4545 c0 -28 4 -35 19 -35 12 0 21 8 24 23 l4 22 2 -22 c1 -29
21 -31 21 -3 0 11 -8 23 -17 26 -10 3 -26 10 -35 15 -16 8 -18 4 -18 -26z"/>
<path d="M2498 4568 c-3 -7 -1 -24 3 -38 4 -14 8 -18 8 -10 1 8 4 25 7 38 7
23 -10 32 -18 10z"/>
<path d="M2770 4550 c0 -16 -5 -30 -11 -30 -5 0 -9 8 -7 18 3 20 1 22 -36 22
-15 0 -26 -7 -29 -17 -4 -17 -5 -17 -6 0 -1 14 -10 17 -51 17 -27 0 -50 -5
-50 -10 0 -6 -8 -5 -20 2 -23 15 -46 -1 -37 -26 7 -19 47 -22 47 -3 0 9 2 9 9
-1 6 -10 10 -8 16 10 l7 23 8 -25 c5 -17 8 -19 9 -7 1 9 6 17 11 17 6 0 10 -8
11 -17 1 -12 4 -10 9 7 7 22 8 22 9 4 1 -17 8 -21 35 -22 28 -1 35 3 39 21 l4
22 2 -22 c1 -16 7 -23 21 -23 16 0 20 7 20 35 0 19 -2 35 -5 35 -3 0 -5 -13
-5 -30z m-215 -9 c3 -5 1 -12 -5 -16 -5 -3 -10 1 -10 9 0 18 6 21 15 7z"/>
<path d="M2790 4535 c0 -21 4 -24 35 -23 26 1 35 6 38 22 4 20 4 20 6 -1 0
-13 6 -23 12 -23 6 0 9 10 7 23 -3 19 -10 22 -50 24 -45 2 -48 1 -48 -22z m26
-12 c-10 -10 -19 5 -10 18 6 11 8 11 12 0 2 -7 1 -15 -2 -18z"/>
<path d="M2427 3044 c-4 -4 -7 -20 -7 -35 0 -27 2 -28 48 -27 26 0 50 6 54 12
5 7 8 6 9 -4 0 -8 4 -4 9 10 l7 25 11 -25 11 -25 0 28 c1 21 -4 27 -19 27 -11
0 -20 -5 -20 -10 0 -6 -8 -5 -20 2 -17 11 -22 10 -29 -1 -7 -10 -12 -11 -27
-1 -18 11 -18 11 -1 6 12 -4 17 -2 15 6 -5 15 -31 22 -41 12z m23 -44 c0 -5
-4 -10 -10 -10 -5 0 -10 5 -10 10 0 6 5 10 10 10 6 0 10 -4 10 -10z"/>
<path d="M2610 3041 c0 -6 -7 -11 -15 -11 -9 0 -15 -9 -15 -25 0 -20 5 -25 25
-25 21 0 25 5 25 29 0 17 -4 33 -10 36 -5 3 -10 1 -10 -4z m0 -36 c0 -8 -4
-15 -10 -15 -5 0 -10 7 -10 15 0 8 5 15 10 15 6 0 10 -7 10 -15z"/>
<path d="M2660 3015 c0 -40 3 -42 32 -16 24 23 18 51 -12 51 -16 0 -20 -6 -20
-35z"/>
<path d="M2822 3015 c0 -34 1 -36 8 -15 l7 25 11 -25 11 -25 0 28 c1 17 -4 27
-13 27 -8 0 -17 6 -19 13 -3 6 -5 -6 -5 -28z"/>
<path d="M2721 3008 c-1 -25 2 -26 44 -26 41 0 45 2 45 24 0 17 -6 24 -20 24
-12 0 -20 -7 -21 -17 0 -15 -2 -15 -9 2 -8 19 -9 19 -9 -2 -1 -13 -5 -23 -10
-23 -5 0 -12 10 -14 23 -4 19 -4 19 -6 -5z"/>
<path d="M2411 2905 c1 -33 2 -36 8 -15 l7 25 8 -22 c12 -36 26 -27 25 15 -1
23 -3 29 -6 14 l-4 -22 -19 22 -19 23 0 -40z"/>
<path d="M2560 2932 c0 -7 -6 -12 -13 -10 -14 3 -17 -2 -17 -32 0 -30 40 -27
41 3 1 21 1 21 8 -3 l8 -25 5 25 c4 21 6 22 7 4 1 -18 8 -21 60 -22 54 0 60 2
64 21 4 22 4 22 6 0 1 -16 7 -23 21 -23 17 0 20 6 18 38 -1 36 -1 36 -5 5 -2
-18 -9 -33 -14 -33 -6 0 -9 8 -7 18 3 20 1 22 -37 22 -15 0 -25 -6 -25 -14 0
-7 -9 -16 -20 -19 -13 -3 -20 0 -20 9 0 8 6 11 15 8 8 -4 15 -1 15 5 0 15 -37
14 -43 -1 -3 -7 -6 -3 -6 10 -1 23 -25 30 -37 11 -4 -8 -9 -7 -15 2 -7 11 -9
11 -9 1z m-13 -44 c-3 -8 -6 -5 -6 6 -1 11 2 17 5 13 3 -3 4 -12 1 -19z"/>
<path d="M2474 2905 c-4 -9 -2 -21 4 -27 15 -15 44 -1 40 19 -4 23 -36 29 -44
8z m26 -11 c0 -8 -5 -12 -10 -9 -6 4 -8 11 -5 16 9 14 15 11 15 -7z"/>
<path d="M2780 2895 c0 -21 4 -24 35 -23 26 1 35 6 38 22 4 20 4 20 6 -1 0
-13 6 -23 12 -23 6 0 9 10 7 23 -3 19 -10 22 -50 24 -45 2 -48 1 -48 -22z m26
-12 c-10 -10 -19 5 -10 18 6 11 8 11 12 0 2 -7 1 -15 -2 -18z"/>
</g>
</svg>
